<svg width="289" height="288" viewBox="0 0 289 288" fill="none" xmlns="http://www.w3.org/2000/svg">
<path d="M106.443 64.091C106.398 64.1375 105.999 64.2305 105.578 64.3002C104.115 64.5326 101.943 65.4391 100.479 66.4153C97.4425 68.4838 95.4252 71.3658 94.4498 75.0846C93.9843 76.8045 93.9621 77.4785 93.8734 87.4029C93.8069 96.7231 93.7626 97.8852 93.4522 97.769C92.8537 97.5365 92.7207 98.2106 92.7207 101.464C92.7207 104.951 92.7872 105.369 93.4079 105.369C93.8069 105.369 93.8291 105.625 93.8291 110.227V115.108L93.3414 115.177C92.8315 115.247 92.8315 115.27 92.8315 119.431C92.8315 123.545 92.8315 123.614 93.3414 123.847L93.8291 124.079V162.08C93.8291 203.219 93.8069 202.684 95.0262 205.752C96.7774 210.284 100.435 213.817 104.802 215.235C106.066 215.63 107.706 215.653 138.941 215.653H171.75L173.678 214.91C174.72 214.514 176.117 213.817 176.782 213.376C180.462 210.865 183.255 206.124 183.72 201.592C183.742 201.406 183.765 183.602 183.787 162.01C183.831 127.751 183.875 122.801 184.164 122.801C184.341 122.801 184.829 122.475 185.272 122.08L186.048 121.36V109.785V98.2338L185.538 97.4436C185.272 97.0252 184.806 96.6069 184.496 96.5371L183.942 96.3977L183.831 86.0781C183.72 76.2467 183.676 75.6656 183.21 74.2246C181.947 70.2502 178.644 66.5315 175.097 65.0904C172.392 63.9981 173.257 64.0213 138.919 63.9981C121.118 63.9981 106.487 64.0446 106.443 64.091ZM117.438 71.8772C118.192 72.342 118.524 73.2252 118.857 75.5029C119.123 77.3623 119.832 79.2682 120.63 80.2908C121.428 81.2903 123.446 82.4524 125.064 82.801C126.549 83.1264 151.71 83.1264 153.35 82.801C155.013 82.4756 157.096 81.3135 158.005 80.2211C158.959 79.0358 159.579 77.3391 159.801 75.3635C159.978 73.6203 160.333 72.6442 160.998 72.0166C161.464 71.575 161.818 71.5518 166.518 71.5518C171.395 71.5518 171.55 71.575 172.592 72.1328C173.9 72.8301 175.385 74.4571 176.227 76.1072L176.848 77.3623L176.915 139.117C176.959 200.616 176.959 200.871 176.516 202.126C175.984 203.591 175.008 205.194 174.011 206.263C173.124 207.193 170.996 208.262 169.4 208.564C168.579 208.727 157.895 208.774 138.032 208.75C108.881 208.681 107.884 208.657 106.908 208.239C104.159 207.007 102.275 205.032 101.322 202.382L100.812 201.011V139.303V77.5947L101.499 76.084C102.541 73.8063 103.827 72.5977 105.955 71.9004C107.041 71.5285 107.994 71.4588 112.007 71.4588C116.263 71.4356 116.839 71.4821 117.438 71.8772Z" fill="black"/>
<path d="M110.1 74.5268C109.524 74.8522 109.347 75.1543 109.347 75.8981C109.347 76.4559 109.258 76.5256 108.526 76.5953C107.906 76.6418 107.618 76.8277 107.374 77.2694C107.086 77.8272 107.086 77.9434 107.418 78.5012C107.706 78.9428 107.994 79.1055 108.526 79.1055C109.214 79.1055 109.258 79.152 109.258 79.9422C109.258 80.8719 109.768 81.4297 110.588 81.4297C111.297 81.4297 111.785 80.8254 111.785 79.8957C111.785 79.152 111.829 79.1055 112.517 79.1055C113.004 79.1055 113.426 78.9195 113.736 78.5709C114.334 77.8969 114.334 77.6877 113.758 76.9207C113.359 76.3861 113.182 76.3164 112.539 76.4559C111.807 76.5953 111.785 76.5953 111.918 75.9213C112.118 74.9219 110.965 74.0154 110.1 74.5268Z" fill="black"/>
<path d="M163.791 76.1072C163.37 76.4559 163.215 76.8045 163.215 77.3391C163.215 79.2682 165.764 79.5238 166.208 77.6412C166.341 77.1531 166.23 76.8742 165.698 76.3164C164.9 75.5029 164.589 75.4565 163.791 76.1072Z" fill="black"/>
<path d="M169.023 75.7819C168.868 75.8516 168.602 76.2002 168.402 76.5953C167.582 78.2455 169.488 79.7098 170.818 78.4779C171.971 77.3623 170.508 75.1543 169.023 75.7819Z" fill="black"/>
<path d="M137.034 99.7213C133.111 103.579 130.717 108.414 130.074 113.62C129.564 117.966 130.029 121.313 131.515 123.684C132.49 125.264 132.845 125.613 134.374 126.473L135.527 127.147L134.862 127.287C133.576 127.565 133 129.518 133.842 130.843C134.042 131.145 134.529 131.586 134.951 131.796C135.66 132.144 135.771 132.144 136.591 131.749C137.943 131.121 138.453 129.866 138.32 127.519C138.143 124.102 137.234 121.662 135.638 120.407C135.261 120.105 134.33 119.5 133.576 119.082C132.091 118.245 131.847 117.827 132.734 117.595C134.441 117.153 137.567 119.059 138.453 121.104C138.764 121.825 138.897 121.778 139.473 120.709C140.094 119.547 141.579 118.222 142.599 117.897C143.552 117.595 145.081 117.711 145.192 118.083C145.237 118.222 144.771 118.617 144.128 118.966C140.803 120.709 139.495 123.103 139.451 127.519C139.406 129.89 139.695 130.796 140.737 131.517C141.047 131.726 141.69 131.912 142.111 131.912C142.754 131.912 143.064 131.749 143.641 131.075C144.616 129.959 144.638 128.867 143.729 127.891C143.375 127.519 142.909 127.217 142.732 127.217C142.067 127.217 142.377 126.868 143.596 126.194C147.165 124.242 148.495 120.035 147.697 113.295C147.32 110.227 146.057 106.787 144.217 103.905C143.131 102.208 139.406 98.1641 138.897 98.1641C138.741 98.1641 137.899 98.8613 137.034 99.7213ZM139.517 107.089C139.695 107.786 140.382 108.693 142.333 110.761L144.882 113.504L144.372 114.085C143.751 114.782 143.485 114.805 142.975 114.201C142.776 113.946 142.532 113.736 142.443 113.736C142.333 113.736 141.535 114.573 140.626 115.619L138.985 117.478L137.079 115.503L135.172 113.527L134.773 114.108C134.263 114.829 133.931 114.805 133.288 114.085L132.756 113.481L134.884 111.226C137.367 108.6 138.254 107.205 138.653 105.392L138.919 104.091L139.096 105.137C139.207 105.718 139.384 106.601 139.517 107.089Z" fill="black"/>
<path d="M138.298 109.901C138.076 110.25 137.567 110.901 137.167 111.389L136.436 112.249L137.677 113.62L138.941 115.015L140.204 113.597L141.49 112.202L140.071 110.738L138.675 109.297L138.298 109.901Z" fill="black"/>
<path d="M125.308 100.814C124.753 102.022 123.911 102.58 122.647 102.58H121.96L123.091 103.742C123.689 104.393 124.199 104.997 124.199 105.09C124.199 105.183 124.288 105.392 124.399 105.578C124.576 105.857 124.731 105.811 125.285 105.299C126.017 104.649 127.236 104.207 128.256 104.207C129.165 104.207 128.987 103.672 127.835 102.905C126.904 102.301 126.35 101.441 125.928 100.047C125.884 99.8375 125.618 100.163 125.308 100.814Z" fill="black"/>
<path d="M151.577 100.442C151.355 101.511 150.646 102.534 149.692 103.161C148.717 103.812 148.695 104.207 149.648 104.207C150.712 104.207 151.976 104.695 152.619 105.369L153.239 106.02L153.594 105.23C153.793 104.788 154.348 104.114 154.813 103.719C155.811 102.882 155.899 102.58 155.124 102.58C154.037 102.58 153.084 101.953 152.463 100.86C152.131 100.279 151.843 99.791 151.798 99.791C151.754 99.791 151.665 100.093 151.577 100.442Z" fill="black"/>
<path d="M166.097 101.906C161.641 102.115 159.114 102.975 157.008 105.044C155.611 106.415 154.924 107.856 154.37 110.575C154.104 111.854 153.838 112.969 153.771 113.086C153.572 113.434 154.813 113.016 156.321 112.272C157.407 111.714 157.961 111.249 158.759 110.157C160.932 107.205 162.328 106.252 164.545 106.206L165.764 106.183L165.742 107.926C165.698 110.692 164.567 112.644 161.885 114.573C160.444 115.596 160.333 115.735 160.333 116.502C160.333 116.967 160.156 118.059 159.912 118.919L159.513 120.477L160.089 120.314C164.988 119.105 167.937 116.107 169.222 111.017C169.821 108.646 169.954 102.557 169.422 102.069C169.178 101.836 168.38 101.79 166.097 101.906Z" fill="black"/>
<path d="M108.194 102.022C107.861 102.371 107.994 109.599 108.349 111.063C109.081 114.108 111.253 117.385 113.403 118.687C114.29 119.245 116.241 120.012 117.571 120.337L118.147 120.477L117.859 119.338C117.704 118.71 117.527 117.618 117.438 116.897C117.283 115.689 117.194 115.503 116.263 114.713C112.827 111.807 111.985 110.436 111.918 107.717L111.896 106.183L112.605 106.113C112.982 106.066 113.869 106.229 114.6 106.438C115.753 106.787 116.108 107.066 118.103 109.204C119.854 111.063 120.63 111.714 121.827 112.295C123.468 113.109 123.867 113.202 123.689 112.714C123.623 112.528 123.445 111.505 123.29 110.436C122.714 106.276 120.785 103.998 116.573 102.534C115.532 102.162 114.467 102.022 111.785 101.953C109.901 101.883 108.283 101.906 108.194 102.022Z" fill="black"/>
<path d="M124.731 107.368C124.798 107.577 124.975 108.484 125.086 109.39C125.507 112.505 125.707 112.969 127.059 114.201C127.724 114.829 128.322 115.317 128.345 115.294C128.367 115.247 128.5 114.527 128.633 113.643C128.943 111.645 128.633 109.785 127.835 108.67C126.948 107.484 124.377 106.392 124.731 107.368Z" fill="black"/>
<path d="M151.577 107.275C149.692 107.972 148.939 109.646 149.094 112.946C149.16 114.201 149.227 115.27 149.227 115.317C149.271 115.479 150.247 114.805 151.022 114.062C151.665 113.434 151.931 112.946 152.153 112.04C152.929 108.484 153.151 107.229 153.062 107.112C152.885 106.95 152.33 106.996 151.577 107.275Z" fill="black"/>
<path d="M113.337 108.042C113.337 108.088 113.536 108.716 113.78 109.413C114.201 110.599 115.576 112.295 116.573 112.876C116.906 113.062 116.928 112.946 116.839 111.459C116.751 109.599 116.418 109.041 115 108.367C114.157 107.949 113.337 107.786 113.337 108.042Z" fill="black"/>
<path d="M162.439 108.46C161.907 108.763 161.397 109.297 161.198 109.785C160.776 110.715 160.466 113.341 160.799 113.225C160.909 113.179 161.441 112.783 161.996 112.342C162.971 111.552 163.924 109.948 164.235 108.553C164.345 107.996 164.301 107.926 163.858 107.926C163.57 107.926 162.927 108.158 162.439 108.46Z" fill="black"/>
<path d="M118.214 111.923C118.214 111.97 118.524 113.62 118.879 115.596C119.699 119.965 120.054 121.337 120.874 123.056L121.517 124.381L123.623 124.544C125.684 124.707 127.857 125.102 128.744 125.474C128.987 125.59 128.389 125.032 127.414 124.265C126.438 123.521 124.975 122.127 124.177 121.22C122.736 119.57 121.295 117.176 121.583 116.851C121.783 116.665 123.423 117.688 124.31 118.571C124.687 118.919 125.463 119.826 126.061 120.593C127.547 122.475 129.697 124.823 130.517 125.427C131.138 125.915 131.138 125.869 130.251 124.544C129.254 123.01 128.411 120.5 128.411 118.989C128.411 116.99 127.037 115.875 122.78 114.457C121.362 113.992 120.253 113.434 119.677 112.946C118.746 112.179 118.214 111.784 118.214 111.923Z" fill="black"/>
<path d="M159.225 112.04C159.225 112.365 157.008 113.922 156.188 114.201C155.833 114.294 154.968 114.573 154.237 114.805C152.596 115.294 151.089 116.084 150.202 116.851C149.626 117.362 149.515 117.641 149.382 118.989C149.183 121.034 148.517 123.08 147.564 124.614C147.032 125.45 146.921 125.776 147.187 125.613C147.875 125.218 149.759 123.219 150.912 121.639C152.641 119.291 154.414 117.525 155.212 117.339C155.611 117.246 155.988 117.223 156.032 117.292C156.542 117.804 151.421 123.986 149.582 125.079C148.961 125.45 149.449 125.427 150.956 125.009C151.643 124.823 153.04 124.66 154.059 124.66H155.899L156.476 123.754C157.252 122.499 158.072 119.849 158.471 117.223C158.67 116.014 158.959 114.341 159.136 113.55C159.335 112.737 159.424 112.016 159.358 111.923C159.291 111.854 159.225 111.9 159.225 112.04Z" fill="black"/>
<path d="M108.903 118.501C108.903 119.965 107.972 121.174 106.576 121.546C105.999 121.685 106.021 121.732 107.219 122.406C108.238 122.963 108.504 123.242 108.682 123.94C108.792 124.405 108.903 124.962 108.903 125.171C108.903 125.915 109.236 125.613 109.834 124.335C110.278 123.405 110.699 122.894 111.563 122.313L112.716 121.546L112.073 121.337C111.253 121.058 110.344 120.151 109.657 118.919C109.014 117.757 108.903 117.711 108.903 118.501Z" fill="black"/>
<path d="M168.402 118.176C168.247 118.362 167.937 118.943 167.671 119.477C167.161 120.57 166.451 121.151 165.365 121.406L164.656 121.569L165.698 122.08C166.85 122.638 167.36 123.196 167.959 124.637C168.203 125.148 168.446 125.59 168.535 125.59C168.624 125.59 168.757 125.171 168.823 124.637C168.956 123.521 169.644 122.685 170.663 122.336C171.084 122.173 171.417 121.987 171.417 121.871C171.417 121.755 171.084 121.569 170.663 121.406C169.599 121.058 169.023 120.291 168.823 118.989C168.69 118.083 168.579 117.92 168.402 118.176Z" fill="black"/>
<path d="M114.091 122.127C113.736 122.243 113.182 122.592 112.916 122.894C111.807 124.126 113.004 125.357 115.266 125.357C116.463 125.357 119.455 124.823 119.699 124.59C119.899 124.381 117.97 122.522 117.194 122.196C116.374 121.825 115.133 121.801 114.091 122.127Z" fill="black"/>
<path d="M160.799 122.034C160.51 122.104 159.712 122.731 159.025 123.428L157.784 124.73L159.446 125.032C161.796 125.45 163.459 125.427 164.057 124.986C164.811 124.451 165.033 123.847 164.744 123.173C164.279 122.127 162.683 121.662 160.799 122.034Z" fill="black"/>
<path d="M118.879 126.496C117.726 126.729 116.174 127.101 115.443 127.333C112.229 128.286 108.615 130.68 105.423 133.98L103.805 135.63L104.226 136.258C104.957 137.327 107.884 140.116 109.613 141.395C113.913 144.579 117.992 145.787 123.734 145.508C128.588 145.299 130.761 144.207 132.246 141.209C133.022 139.675 134.33 138.141 134.884 138.141C135.305 138.141 134.33 137.164 133.576 136.839C132.69 136.444 131.803 136.421 130.451 136.793C129.076 137.141 127.214 139.024 126.882 140.395C126.726 140.953 126.46 141.418 126.239 141.488C125.064 141.836 123.29 142.138 123.179 142.022C123.113 141.952 123.623 141.116 124.332 140.186C126.261 137.676 126.66 137.234 127.724 136.444L128.699 135.747L127.946 135.328C126.882 134.771 122.847 129.959 123.135 129.634C123.202 129.564 123.933 129.634 124.753 129.773C126.35 130.029 126.726 130.331 126.948 131.447C127.103 132.26 128.256 133.608 129.409 134.306C131.204 135.421 133.443 135.282 134.396 134.027C134.64 133.701 134.84 133.353 134.84 133.283C134.84 133.19 134.485 132.934 134.042 132.679C133.51 132.377 132.978 131.749 132.401 130.726C131.005 128.216 129.941 127.38 127.192 126.613C125.241 126.055 121.273 126.008 118.879 126.496ZM121.583 132.725C123.157 134.352 124.421 135.793 124.421 135.933C124.421 136.328 119.012 141.859 118.635 141.859C118.436 141.859 117.15 140.721 115.798 139.303C113.049 136.467 112.583 136.142 110.943 135.909C109.524 135.723 109.657 135.352 111.164 135.352C111.763 135.352 112.583 135.189 112.982 135.003C113.359 134.817 114.733 133.562 115.997 132.214C117.283 130.866 118.413 129.773 118.546 129.773C118.657 129.773 120.032 131.098 121.583 132.725Z" fill="black"/>
<path d="M117.815 132.795C117.549 133.167 116.729 133.98 116.019 134.608L114.711 135.747L116.684 137.815L118.657 139.861L120.009 138.489C120.741 137.722 121.561 136.793 121.805 136.444L122.271 135.77L120.519 133.934C119.566 132.934 118.679 132.098 118.546 132.098C118.413 132.098 118.081 132.4 117.815 132.795ZM119.322 136.374C118.768 137.327 118.635 137.327 117.881 136.514L117.238 135.816L117.881 135.119L118.524 134.422L119.145 135.049L119.766 135.677L119.322 136.374Z" fill="black"/>
<path d="M150.889 126.636C149.094 127.124 147.919 127.682 146.788 128.658C146.611 128.821 145.968 129.704 145.392 130.633C144.815 131.563 143.995 132.539 143.574 132.795C142.931 133.213 142.865 133.353 143.064 133.748C143.419 134.492 144.616 135.119 145.613 135.119C147.786 135.119 150.047 133.515 150.978 131.307C151.51 130.099 151.865 129.866 153.904 129.657L155.301 129.518L153.993 131.098C151.887 133.701 150.535 135.073 149.87 135.375C149.293 135.63 149.005 136.049 149.426 136.049C150.069 136.049 155.212 141.58 154.88 141.929C154.769 142.045 152.308 141.534 151.643 141.278C151.444 141.185 151.155 140.767 151.022 140.349C150.668 139.233 149.183 137.56 148.008 136.979C147.21 136.56 146.722 136.49 145.68 136.56C143.618 136.723 142.399 137.931 143.596 138.605C143.929 138.791 144.705 139.791 145.37 140.813C146.833 143.138 147.919 144.207 149.604 144.904C150.801 145.392 151.244 145.439 154.791 145.439C158.249 145.439 158.892 145.369 160.799 144.834C164.966 143.649 168.18 141.604 172.082 137.699L173.966 135.793L171.993 133.818C169.621 131.447 167.294 129.704 164.877 128.425C161.907 126.868 159.358 126.264 155.567 126.171C153.372 126.101 152.552 126.194 150.889 126.636ZM161.818 132.144C164.39 134.817 165.21 135.328 166.983 135.352C167.981 135.375 168.114 135.421 167.781 135.607C167.56 135.747 166.762 136.026 166.008 136.188C164.7 136.514 164.589 136.583 162.173 139.233L159.69 141.952L159.069 141.604C158.316 141.209 153.461 136.305 153.461 135.956C153.461 135.654 159.025 129.773 159.313 129.773C159.424 129.773 160.555 130.843 161.818 132.144Z" fill="black"/>
<path d="M157.362 133.934C155.656 135.747 155.633 135.77 155.988 136.328C156.188 136.653 157.03 137.56 157.828 138.35L159.313 139.791L161.198 137.815L163.06 135.816L161.22 134.004C160.2 133.027 159.313 132.191 159.247 132.144C159.158 132.121 158.316 132.911 157.362 133.934ZM160 136.397C159.491 137.374 159.18 137.42 158.582 136.607C157.961 135.793 158.005 135.491 158.715 134.887L159.313 134.399L159.867 134.98L160.422 135.561L160 136.397Z" fill="black"/>
<path d="M137.167 133.074C136.502 133.608 135.948 134.794 135.948 135.63C135.948 135.909 136.148 136.583 136.392 137.118C137.145 138.722 138.897 139.303 140.315 138.373C142.133 137.211 142.222 134.492 140.471 133.051C139.65 132.377 138.01 132.377 137.167 133.074Z" fill="black"/>
<path d="M135.616 139.419C135.505 139.465 135.128 139.558 134.796 139.628C134.064 139.814 133.51 140.813 133.51 141.976C133.51 143.068 133.82 143.626 134.685 144.184L135.372 144.625L134.751 144.881C133.089 145.532 131.692 147.298 130.672 149.924C130.118 151.435 130.074 151.714 130.096 155.456C130.096 158.524 130.185 159.756 130.495 160.988C131.603 165.38 133.687 168.913 137.256 172.469C138.054 173.283 138.808 173.934 138.919 173.934C139.251 173.934 143.086 169.75 143.884 168.565C144.771 167.193 145.946 164.73 146.655 162.777C147.453 160.546 147.764 158.385 147.764 155.224C147.764 152.063 147.409 150.413 146.345 148.437C145.613 147.089 143.707 145.183 142.909 144.974C142.399 144.834 142.155 144.416 142.576 144.416C142.687 144.416 143.086 144.137 143.463 143.812C144.062 143.3 144.15 143.068 144.15 142.069C144.15 138.815 140.227 138.652 139.495 141.883C138.963 144.137 139.562 147.833 140.737 149.762C141.402 150.877 142.953 152.365 144.217 153.132C145.414 153.852 145.303 154.178 143.84 154.178C142.133 154.178 140.204 152.737 139.318 150.784C139.14 150.343 138.919 149.994 138.852 149.994C138.786 149.994 138.475 150.459 138.187 151.04C137.389 152.644 135.97 153.876 134.751 154.062C133.709 154.224 132.623 154.085 132.623 153.759C132.623 153.666 132.956 153.388 133.355 153.155C135.438 151.9 136.369 150.924 137.145 149.227C138.564 146.089 138.786 141.976 137.633 140.418C137.323 139.977 135.97 139.326 135.616 139.419ZM140.714 156.27L142.51 158.152L143.042 157.548C143.618 156.92 144.128 156.804 144.549 157.246C145.126 157.85 144.793 158.501 142.909 160.453C140.448 163.01 139.783 164.056 139.34 165.962C138.897 167.937 138.608 168.309 138.608 166.938C138.608 164.799 138.076 163.846 135.261 160.802L132.623 157.966L133.288 157.315L133.953 156.641L134.707 157.408L135.438 158.152L137.079 156.293C137.988 155.27 138.764 154.433 138.83 154.433C138.874 154.41 139.739 155.247 140.714 156.27Z" fill="black"/>
<path d="M137.611 158.129L136.325 159.5L137.522 161.011C138.187 161.848 138.786 162.498 138.852 162.475C138.919 162.452 139.562 161.778 140.271 160.964L141.557 159.5L140.227 158.129L138.919 156.758L137.611 158.129Z" fill="black"/>
<path d="M129.697 147.042C129.01 147.693 127.768 149.134 126.948 150.227C126.128 151.319 125.108 152.574 124.709 153.039C123.955 153.876 121.872 155.084 121.628 154.829C121.495 154.666 122.115 153.318 122.559 152.783C122.736 152.597 123.401 151.737 124.066 150.901C125.219 149.436 127.635 147.135 128.234 146.903C128.389 146.856 128.478 146.74 128.411 146.671C128.345 146.601 127.613 146.694 126.749 146.88C125.906 147.042 124.487 147.182 123.623 147.205C122.293 147.205 121.982 147.275 121.606 147.716C120.697 148.762 119.876 150.994 119.322 153.829C119.078 155.2 118.923 155.874 118.413 158.315C118.28 158.989 118.214 159.593 118.258 159.663C118.325 159.709 118.746 159.43 119.211 159.059C120.253 158.199 121.007 157.804 122.736 157.292C126.128 156.293 128.411 154.643 128.411 153.178C128.433 151.342 129.209 149.018 130.428 147.159C130.894 146.415 131.226 145.811 131.138 145.811C131.027 145.811 130.406 146.368 129.697 147.042Z" fill="black"/>
<path d="M147.387 146.647C147.742 147.112 148.008 147.554 147.963 147.6C147.941 147.647 148.052 147.972 148.229 148.321C148.384 148.669 148.739 149.878 149.005 151.04C149.271 152.179 149.626 153.457 149.803 153.876C150.247 154.921 152.064 156.107 154.569 156.99C157.008 157.827 157.274 157.966 158.382 158.896C158.848 159.291 159.291 159.523 159.38 159.43C159.468 159.361 159.313 158.268 159.047 157.013C158.803 155.781 158.515 154.34 158.449 153.829C158.161 152.039 157.451 149.855 156.742 148.6L156.01 147.321L153.771 147.182C152.552 147.112 151.178 146.903 150.734 146.763C150.269 146.601 149.825 146.508 149.692 146.554C149.582 146.601 150.313 147.368 151.311 148.251C154.015 150.691 156.587 154.224 156.077 154.782C155.855 154.991 154.725 154.387 153.86 153.62C153.372 153.178 152.286 151.9 151.444 150.761C149.715 148.507 147.808 146.368 147.165 145.996C146.855 145.834 146.921 145.996 147.387 146.647Z" fill="black"/>
<path d="M161.331 146.322C160.843 146.415 159.912 146.624 159.269 146.787L158.094 147.089L158.803 147.972C159.668 149.064 160.932 149.762 162.106 149.762C164.523 149.762 166.075 147.763 164.478 146.671C163.836 146.252 162.439 146.089 161.331 146.322Z" fill="black"/>
<path d="M167.981 147.391C167.493 148.553 167.161 148.971 166.429 149.413C165.919 149.738 165.343 149.994 165.143 149.994C164.922 149.994 164.767 150.087 164.767 150.227C164.767 150.343 164.922 150.459 165.143 150.459C166.008 150.459 167.338 151.575 167.87 152.76C168.446 154.062 168.757 154.271 168.757 153.364C168.757 152.156 169.355 151.179 170.397 150.645C171.373 150.157 171.705 149.762 171.173 149.762C171.04 149.762 170.597 149.599 170.198 149.39C169.444 149.018 168.823 147.902 168.69 146.624C168.624 145.973 168.579 146.043 167.981 147.391Z" fill="black"/>
<path d="M108.925 146.81C108.881 148.367 108.127 149.274 106.354 149.878C105.977 150.017 106.088 150.11 106.908 150.459C108.15 150.97 108.704 151.714 108.837 153.109C108.903 153.69 109.036 154.178 109.125 154.178C109.214 154.178 109.458 153.783 109.635 153.295C110.1 152.109 110.965 151.04 111.785 150.691C112.14 150.529 112.45 150.343 112.45 150.25C112.45 150.18 112.029 149.924 111.541 149.692C110.898 149.367 110.477 148.925 110.012 148.065C108.97 146.113 108.925 146.066 108.925 146.81Z" fill="black"/>
<path d="M113.027 146.763C112.45 147.228 112.251 148.181 112.628 148.739C113.714 150.366 116.463 150.064 118.768 148.019C119.699 147.228 119.743 146.973 118.945 146.973C118.591 146.973 117.771 146.81 117.105 146.624C115.31 146.113 113.736 146.159 113.027 146.763Z" fill="black"/>
<path d="M117.017 151.272C114.911 151.877 113.182 152.992 111.519 154.829C109.768 156.758 108.97 158.385 108.349 161.15C107.884 163.265 107.662 168.425 107.994 169.332L108.238 169.982H111.076C114.578 169.982 116.108 169.704 118.103 168.704C121.229 167.147 122.426 165.497 123.224 161.755C123.49 160.453 123.8 159.221 123.889 158.966C124.022 158.594 123.978 158.571 123.512 158.71C123.224 158.78 122.359 159.175 121.628 159.547C120.32 160.197 119.633 160.825 117.527 163.312C116.529 164.497 115.576 165.125 114.135 165.543C112.295 166.054 111.63 165.195 112.029 162.824C112.45 160.476 113.625 158.663 115.687 157.176C116.285 156.758 116.862 156.246 116.995 156.06C117.261 155.619 118.391 150.924 118.214 150.947C118.147 150.947 117.615 151.11 117.017 151.272Z" fill="black"/>
<path d="M159.535 151.551C159.601 151.784 159.801 152.69 160 153.597C160.178 154.48 160.377 155.456 160.444 155.712C160.51 155.991 161.042 156.548 161.641 156.944C163.946 158.501 165.565 161.057 165.808 163.568C165.919 164.683 165.875 164.846 165.409 165.195C163.946 166.264 161.863 165.264 159.779 162.568C159.136 161.685 158.072 160.616 157.407 160.174C156.232 159.361 154.192 158.431 154.015 158.617C153.904 158.733 154.458 162.08 154.747 163.126C155.168 164.613 156.143 166.264 157.163 167.147C159.491 169.239 161.885 169.982 166.474 169.982H169.422L169.555 169.401C169.821 168.309 169.511 161.801 169.112 160.383C167.937 155.967 165.254 153.016 161.131 151.551C159.712 151.04 159.38 151.04 159.535 151.551Z" fill="black"/>
<path d="M149.138 157.804C148.806 161.522 149.36 163.265 151.155 164.149C152.419 164.776 153.106 164.637 152.929 163.754C152.862 163.405 152.707 162.382 152.574 161.499C152.264 159.407 151.444 157.641 150.38 156.734C149.892 156.362 149.471 156.037 149.404 156.037C149.338 156.037 149.205 156.827 149.138 157.804Z" fill="black"/>
<path d="M127.369 156.944C126.305 157.757 125.396 159.57 125.219 161.267C124.997 163.242 124.931 163.637 124.798 163.87C124.487 164.381 125.241 164.706 126.083 164.404C127.103 164.056 127.879 163.289 128.3 162.243C128.655 161.313 128.788 156.27 128.455 156.27C128.345 156.27 127.857 156.572 127.369 156.944Z" fill="black"/>
<path d="M115.576 159.43C113.869 161.057 112.894 163.707 113.98 163.707C115.044 163.707 116.064 163.01 116.618 161.871C116.995 161.081 117.261 158.361 116.928 158.361C116.795 158.361 116.197 158.849 115.576 159.43Z" fill="black"/>
<path d="M160.776 159.523C160.776 160.174 160.909 161.034 161.087 161.453C161.464 162.429 162.86 163.707 163.547 163.707C164.035 163.707 164.102 163.591 164.102 162.94C164.102 161.778 162.882 159.919 161.397 158.78L160.776 158.338V159.523Z" fill="black"/>
<path d="M124.332 165.915C124.111 166.845 123.534 167.658 122.603 168.379L121.761 169.006L122.692 169.169C124.244 169.401 124.776 169.727 125.308 170.726L125.817 171.656L126.394 170.424C126.837 169.425 127.17 169.076 127.901 168.704C129.076 168.123 129.209 167.426 128.145 167.426C126.837 167.426 125.795 166.984 125.13 166.124L124.487 165.311L124.332 165.915Z" fill="black"/>
<path d="M152.463 166.426C151.865 167.17 151.665 167.263 150.357 167.403C148.783 167.565 148.429 167.984 149.493 168.518C150.468 169.006 151.2 169.889 151.466 170.912L151.71 171.888L152.375 170.819C153.106 169.587 153.971 169.122 155.678 169.076C156.232 169.053 156.232 169.053 155.567 168.611C154.702 168.077 153.727 166.868 153.55 166.124C153.372 165.38 153.261 165.427 152.463 166.426Z" fill="black"/>
<path d="M108.682 180.163C108.504 180.232 108.283 180.395 108.194 180.534C107.884 180.999 107.994 192.876 108.283 193.178C108.659 193.573 109.258 193.527 109.657 193.108C109.967 192.783 110.1 192.783 110.921 193.062C113.137 193.852 115.177 192.272 115.465 189.576C115.775 186.694 112.982 184.416 110.677 185.671L110.034 186.02L109.967 183.323C109.901 180.906 109.857 180.581 109.458 180.325C109.214 180.163 108.859 180.093 108.682 180.163ZM112.871 187.786C113.78 188.576 113.847 189.924 113.004 190.784C112.273 191.574 111.453 191.528 110.632 190.668C110.056 190.04 109.967 189.831 110.078 189.088C110.233 188.158 111.098 187.182 111.785 187.182C112.007 187.182 112.495 187.461 112.871 187.786Z" fill="black"/>
<path d="M131.426 180.348C131.116 180.651 131.071 181.557 131.071 186.717C131.071 191.877 131.116 192.783 131.426 193.085C131.825 193.527 132.047 193.55 132.645 193.225C132.978 193.039 133.066 192.713 133.066 191.83C133.066 191.179 133.155 190.668 133.288 190.668C133.399 190.668 133.909 191.249 134.419 191.946C135.283 193.155 135.394 193.225 136.303 193.225C137.145 193.225 137.278 193.155 137.278 192.737C137.278 192.458 136.724 191.621 136.037 190.831L134.796 189.436L135.97 188.204C136.613 187.507 137.234 186.949 137.323 186.949C137.411 186.949 137.5 189.134 137.5 191.83C137.5 196.455 137.522 196.734 137.966 197.199C138.365 197.617 138.475 197.641 138.897 197.338C139.34 197.036 139.384 196.804 139.384 194.782V192.574L139.938 192.876C141.668 193.806 143.485 192.946 144.283 190.784C144.971 188.878 144.195 186.577 142.599 185.741C141.712 185.276 140.559 185.206 139.894 185.578C139.562 185.764 139.406 185.764 139.273 185.555C139.163 185.369 138.586 185.276 137.722 185.299L136.325 185.322L134.751 186.88L133.177 188.46L133.111 184.648C133.066 181.487 133 180.744 132.69 180.395C132.246 179.884 131.869 179.86 131.426 180.348ZM142.177 187.856C142.931 188.646 142.998 189.343 142.377 190.366C141.601 191.714 140.182 191.598 139.606 190.11C139.273 189.297 139.362 188.553 139.894 187.693C140.36 186.949 141.357 187.019 142.177 187.856Z" fill="black"/>
<path d="M157.495 180.255C157.318 180.441 157.229 181.464 157.229 183.277V186.043L156.564 185.671C154.658 184.648 152.752 185.973 152.242 188.692L152.064 189.622L151.865 188.576C151.599 187.321 150.823 186.159 149.87 185.648C148.983 185.16 147.099 185.299 146.301 185.927C144.948 186.949 144.416 189.576 145.192 191.296C145.724 192.481 147.077 193.341 148.384 193.318C149.471 193.294 150.69 192.713 151.111 192.016C151.288 191.691 151.244 191.505 150.867 191.11C150.424 190.645 150.38 190.621 149.892 190.993C148.916 191.691 147.631 191.435 146.833 190.366C146.545 189.994 146.7 189.971 149.338 189.971H152.131L152.353 190.598C152.973 192.341 153.505 192.899 154.946 193.225C155.523 193.364 155.988 193.318 156.52 193.085C157.229 192.783 157.34 192.783 157.717 193.132C158.05 193.457 158.227 193.48 158.67 193.271L159.225 192.992V186.879C159.225 181.232 159.202 180.72 158.826 180.372C158.338 179.907 157.872 179.86 157.495 180.255ZM149.094 187.205C149.582 187.484 149.914 187.856 149.914 188.158C149.914 188.274 149.227 188.344 148.362 188.344C147.52 188.344 146.811 188.251 146.811 188.135C146.811 187.832 147.919 186.949 148.296 186.949C148.473 186.949 148.828 187.065 149.094 187.205ZM156.365 187.437C157.052 187.809 157.429 188.948 157.207 189.947C156.897 191.365 155.811 191.784 154.725 190.9C153.971 190.273 153.771 189.273 154.215 188.367C154.769 187.275 155.5 186.949 156.365 187.437Z" fill="black"/>
<path d="M128.123 181.789C127.569 182.44 127.635 183.393 128.3 183.835C129.542 184.695 130.894 183.323 130.007 182.092C129.475 181.348 128.633 181.208 128.123 181.789Z" fill="black"/>
<path d="M160.444 181.929C159.867 182.533 159.89 182.975 160.51 183.742C160.976 184.323 161.597 184.253 162.217 183.579C162.882 182.905 162.904 182.742 162.395 182.115C161.73 181.325 161.087 181.255 160.444 181.929Z" fill="black"/>
<path d="M124.155 182.789C123.867 182.952 123.756 183.323 123.756 184.16C123.756 185.299 123.734 185.322 123.091 185.322C122.559 185.322 122.404 185.438 122.293 185.95C122.182 186.391 122.248 186.647 122.559 186.879C122.78 187.042 123.091 187.135 123.224 187.089C123.401 187.019 123.512 187.716 123.601 189.32C123.734 192.039 124.044 192.69 125.463 193.201C126.283 193.504 126.416 193.504 126.97 193.132C127.391 192.829 127.524 192.574 127.48 192.109C127.436 191.598 127.281 191.458 126.638 191.365L125.862 191.249V189.157V187.065H126.638C127.369 187.065 127.414 187.019 127.414 186.252C127.414 185.462 127.391 185.438 126.505 185.369L125.596 185.299L125.707 184.276C125.862 182.766 125.197 182.138 124.155 182.789Z" fill="black"/>
<path d="M128.81 185.113C128.455 185.322 128.411 185.764 128.411 188.925C128.411 190.877 128.478 192.644 128.544 192.853C128.699 193.294 129.808 193.341 130.118 192.922C130.251 192.76 130.318 191.11 130.273 189.041C130.229 185.927 130.162 185.415 129.83 185.16C129.364 184.811 129.298 184.811 128.81 185.113Z" fill="black"/>
<path d="M117.682 185.438C117.216 185.601 116.662 185.927 116.463 186.113C116.152 186.461 116.174 186.531 116.706 187.089C117.172 187.6 117.349 187.646 117.726 187.437C118.413 187.042 119.433 187.135 119.832 187.6C120.054 187.832 120.209 188.088 120.209 188.158C120.209 188.228 119.61 188.344 118.879 188.413C117.194 188.599 116.352 189.064 115.997 189.947C115.177 192.039 117.416 194.038 119.5 193.039C120.165 192.737 120.253 192.737 120.652 193.108C121.029 193.457 121.184 193.48 121.672 193.248L122.248 192.969L122.16 190.25C122.071 187.158 121.761 186.298 120.608 185.717C119.455 185.16 118.613 185.09 117.682 185.438ZM120.209 190.529C120.209 191.04 120.076 191.133 119.234 191.249C118.17 191.435 117.771 191.296 117.771 190.784C117.771 190.319 118.413 189.994 119.389 189.971C120.12 189.971 120.209 190.04 120.209 190.529Z" fill="black"/>
<path d="M160.4 185.253C160.178 185.322 160.111 186.345 160.111 189.18C160.111 192.922 160.111 193.015 160.621 193.201C160.932 193.341 161.264 193.318 161.552 193.108C161.951 192.853 161.996 192.527 162.062 189.273C162.106 186.856 162.04 185.624 161.863 185.415C161.619 185.09 160.932 185.02 160.4 185.253Z" fill="black"/>
<path d="M164.833 185.346C164.057 185.508 162.993 186.159 162.993 186.438C162.993 186.554 163.237 186.879 163.525 187.158C164.013 187.646 164.124 187.67 164.833 187.391C165.72 187.065 166.651 187.251 166.85 187.786C166.939 187.995 166.961 188.204 166.917 188.251C166.873 188.297 166.163 188.437 165.343 188.553C163.17 188.878 162.173 190.064 162.749 191.644C163.281 193.085 164.589 193.666 166.119 193.108C166.961 192.783 167.094 192.783 167.449 193.132C167.981 193.62 168.712 193.364 168.89 192.597C168.979 192.272 168.979 190.993 168.912 189.738C168.801 187.391 168.424 186.229 167.671 185.81C166.961 185.392 165.565 185.16 164.833 185.346ZM166.983 190.529C166.983 191.179 166.629 191.365 165.409 191.365C164.678 191.365 164.545 191.296 164.545 190.9C164.545 190.343 165.188 190.017 166.274 189.994C166.873 189.971 166.983 190.04 166.983 190.529Z" fill="black"/>
</svg>
