<?xml version="1.0" standalone="no"?>
<!DOCTYPE svg PUBLIC "-//W3C//DTD SVG 20010904//EN"
 "http://www.w3.org/TR/2001/REC-SVG-20010904/DTD/svg10.dtd">
<svg version="1.0" xmlns="http://www.w3.org/2000/svg"
 width="1024.000000pt" height="1024.000000pt" viewBox="0 0 1024.000000 1024.000000"
 preserveAspectRatio="xMidYMid meet">

<g transform="translate(0.000000,1024.000000) scale(0.100000,-0.100000)"
fill="#000000" stroke="none">
<path d="M3719 8386 c-2 -2 -20 -6 -39 -9 -66 -10 -164 -49 -230 -91 -137 -89
-228 -213 -272 -373 -21 -74 -22 -103 -26 -530 -3 -401 -5 -451 -19 -446 -27
10 -33 -19 -33 -159 0 -150 3 -168 31 -168 18 0 19 -11 19 -209 l0 -210 -22
-3 c-23 -3 -23 -4 -23 -183 0 -177 0 -180 23 -190 l22 -10 0 -1635 c0 -1770
-1 -1747 54 -1879 79 -195 244 -347 441 -408 57 -17 131 -18 1540 -18 l1480 0
87 32 c47 17 110 47 140 66 166 108 292 312 313 507 1 8 2 774 3 1703 2 1474
4 1687 17 1687 8 0 30 14 50 31 l35 31 0 498 0 497 -23 34 c-12 18 -33 36 -47
39 l-25 6 -5 444 c-5 423 -7 448 -28 510 -57 171 -206 331 -366 393 -122 47
-83 46 -1632 47 -803 0 -1463 -2 -1465 -4z m496 -335 c34 -20 49 -58 64 -156
12 -80 44 -162 80 -206 36 -43 127 -93 200 -108 67 -14 1202 -14 1276 0 75 14
169 64 210 111 43 51 71 124 81 209 8 75 24 117 54 144 21 19 37 20 249 20
220 0 227 -1 274 -25 59 -30 126 -100 164 -171 l28 -54 3 -2657 c2 -2646 2
-2657 -18 -2711 -24 -63 -68 -132 -113 -178 -40 -40 -136 -86 -208 -99 -37 -7
-519 -9 -1415 -8 -1315 3 -1360 4 -1404 22 -124 53 -209 138 -252 252 l-23 59
0 2655 0 2655 31 65 c47 98 105 150 201 180 49 16 92 19 273 19 192 1 218 -1
245 -18z"/>
<path d="M3884 7937 c-26 -14 -34 -27 -34 -59 0 -24 -4 -27 -37 -30 -28 -2
-41 -10 -52 -29 -13 -24 -13 -29 2 -53 13 -19 26 -26 50 -26 31 0 33 -2 33
-36 0 -40 23 -64 60 -64 32 0 54 26 54 66 0 32 2 34 33 34 22 0 41 8 55 23 27
29 27 38 1 71 -18 23 -26 26 -55 20 -33 -6 -34 -6 -28 23 9 43 -43 82 -82 60z"/>
<path d="M6306 7869 c-19 -15 -26 -30 -26 -53 0 -83 115 -94 135 -13 6 21 1
33 -23 57 -36 35 -50 37 -86 9z"/>
<path d="M6542 7883 c-7 -3 -19 -18 -28 -35 -37 -71 49 -134 109 -81 52 48
-14 143 -81 116z"/>
<path d="M5099 6853 c-177 -166 -285 -374 -314 -598 -23 -187 -2 -331 65 -433
44 -68 60 -83 129 -120 l52 -29 -30 -6 c-58 -12 -84 -96 -46 -153 9 -13 31
-32 50 -41 32 -15 37 -15 74 2 61 27 84 81 78 182 -8 147 -49 252 -121 306
-17 13 -59 39 -93 57 -67 36 -78 54 -38 64 77 19 218 -63 258 -151 14 -31 20
-29 46 17 28 50 95 107 141 121 43 13 112 8 117 -8 2 -6 -19 -23 -48 -38 -150
-75 -209 -178 -211 -368 -2 -102 11 -141 58 -172 14 -9 43 -17 62 -17 29 0 43
7 69 36 44 48 45 95 4 137 -16 16 -37 29 -45 29 -30 0 -16 15 39 44 161 84
221 265 185 555 -17 132 -74 280 -157 404 -49 73 -217 247 -240 247 -7 0 -45
-30 -84 -67z m112 -317 c8 -30 39 -69 127 -158 l115 -118 -23 -25 c-28 -30
-40 -31 -63 -5 -9 11 -20 20 -24 20 -5 0 -41 -36 -82 -81 l-74 -80 -86 85 -86
85 -18 -25 c-23 -31 -38 -30 -67 1 l-24 26 96 97 c112 113 152 173 170 251
l12 56 8 -45 c5 -25 13 -63 19 -84z"/>
<path d="M5156 6415 c-10 -15 -33 -43 -51 -64 l-33 -37 56 -59 57 -60 57 61
58 60 -64 63 -63 62 -17 -26z"/>
<path d="M4570 6806 c-25 -52 -63 -76 -120 -76 l-31 0 51 -50 c27 -28 50 -54
50 -58 0 -4 4 -13 9 -21 8 -12 15 -10 40 12 33 28 88 47 134 47 41 0 33 23
-19 56 -42 26 -67 63 -86 123 -2 9 -14 -5 -28 -33z"/>
<path d="M5755 6822 c-10 -46 -42 -90 -85 -117 -44 -28 -45 -45 -2 -45 48 0
105 -21 134 -50 l28 -28 16 34 c9 19 34 48 55 65 45 36 49 49 14 49 -49 0 -92
27 -120 74 -15 25 -28 46 -30 46 -2 0 -6 -13 -10 -28z"/>
<path d="M6410 6759 c-201 -9 -315 -46 -410 -135 -63 -59 -94 -121 -119 -238
-12 -55 -24 -103 -27 -108 -9 -15 47 3 115 35 49 24 74 44 110 91 98 127 161
168 261 170 l55 1 -1 -75 c-2 -119 -53 -203 -174 -286 -65 -44 -70 -50 -70
-83 0 -20 -8 -67 -19 -104 l-18 -67 26 7 c221 52 354 181 412 400 27 102 33
364 9 385 -11 10 -47 12 -150 7z"/>
<path d="M3798 6754 c-15 -15 -9 -326 7 -389 33 -131 131 -272 228 -328 40
-24 128 -57 188 -71 l26 -6 -13 49 c-7 27 -15 74 -19 105 -7 52 -11 60 -53 94
-155 125 -193 184 -196 301 l-1 66 32 3 c17 2 57 -5 90 -14 52 -15 68 -27 158
-119 79 -80 114 -108 168 -133 74 -35 92 -39 84 -18 -3 8 -11 52 -18 98 -26
179 -113 277 -303 340 -47 16 -95 22 -216 25 -85 3 -158 2 -162 -3z"/>
<path d="M4544 6524 c3 -9 11 -48 16 -87 19 -134 28 -154 89 -207 30 -27 57
-48 58 -47 1 2 7 33 13 71 14 86 0 166 -36 214 -40 51 -156 98 -140 56z"/>
<path d="M5755 6528 c-85 -30 -119 -102 -112 -244 3 -54 6 -100 6 -102 2 -7
46 22 81 54 29 27 41 48 51 87 35 153 45 207 41 212 -8 7 -33 5 -67 -7z"/>
<path d="M4030 6495 c0 -2 9 -29 20 -59 19 -51 81 -124 126 -149 15 -8 16 -3
12 61 -4 80 -19 104 -83 133 -38 18 -75 25 -75 14z"/>
<path d="M6245 6477 c-24 -13 -47 -36 -56 -57 -19 -40 -33 -153 -18 -148 5 2
29 19 54 38 44 34 87 103 101 163 5 24 3 27 -17 27 -13 0 -42 -10 -64 -23z"/>
<path d="M4250 6328 c0 -2 14 -73 30 -158 37 -188 53 -247 90 -321 l29 -57 95
-7 c93 -7 191 -24 231 -40 11 -5 -16 19 -60 52 -44 32 -110 92 -146 131 -65
71 -130 174 -117 188 9 8 83 -36 123 -74 17 -15 52 -54 79 -87 67 -81 164
-182 201 -208 28 -21 28 -19 -12 38 -45 66 -83 174 -83 239 0 86 -62 134 -254
195 -64 20 -114 44 -140 65 -42 33 -66 50 -66 44z"/>
<path d="M6100 6323 c0 -14 -100 -81 -137 -93 -16 -4 -55 -16 -88 -26 -74 -21
-142 -55 -182 -88 -26 -22 -31 -34 -37 -92 -9 -88 -39 -176 -82 -242 -24 -36
-29 -50 -17 -43 31 17 116 103 168 171 78 101 158 177 194 185 18 4 35 5 37 2
23 -22 -208 -288 -291 -335 -28 -16 -6 -15 62 3 31 8 94 15 140 15 l83 0 26
39 c35 54 72 168 90 281 9 52 22 124 30 158 9 35 13 66 10 70 -3 3 -6 1 -6 -5z"/>
<path d="M3830 6045 c0 -63 -42 -115 -105 -131 -26 -6 -25 -8 29 -37 46 -24
58 -36 66 -66 5 -20 10 -44 10 -53 0 -32 15 -19 42 36 20 40 39 62 78 87 l52
33 -29 9 c-37 12 -78 51 -109 104 -29 50 -34 52 -34 18z"/>
<path d="M6514 6059 c-7 -8 -21 -33 -33 -56 -23 -47 -55 -72 -104 -83 l-32 -7
47 -22 c52 -24 75 -48 102 -110 11 -22 22 -41 26 -41 4 0 10 18 13 41 6 48 37
84 83 99 19 7 34 15 34 20 0 5 -15 13 -34 20 -48 15 -74 48 -83 104 -6 39 -11
46 -19 35z"/>
<path d="M4064 5889 c-16 -5 -41 -20 -53 -33 -50 -53 4 -106 106 -106 54 0
189 23 200 33 9 9 -78 89 -113 103 -37 16 -93 17 -140 3z"/>
<path d="M6171 5893 c-13 -3 -49 -30 -80 -60 l-56 -56 75 -13 c106 -18 181
-17 208 2 34 23 44 49 31 78 -21 45 -93 65 -178 49z"/>
<path d="M4280 5701 c-52 -10 -122 -26 -155 -36 -145 -41 -308 -144 -452 -286
l-73 -71 19 -27 c33 -46 165 -166 243 -221 194 -137 378 -189 637 -177 219 9
317 56 384 185 35 66 94 132 119 132 19 0 -25 42 -59 56 -40 17 -80 18 -141 2
-62 -15 -146 -96 -161 -155 -7 -24 -19 -44 -29 -47 -53 -15 -133 -28 -138 -23
-3 3 20 39 52 79 87 108 105 127 153 161 l44 30 -34 18 c-48 24 -230 231 -217
245 3 3 36 0 73 -6 72 -11 89 -24 99 -72 7 -35 59 -93 111 -123 81 -48 182
-42 225 12 11 14 20 29 20 32 0 4 -16 15 -36 26 -24 13 -48 40 -74 84 -63 108
-111 144 -235 177 -88 24 -267 26 -375 5z m122 -268 c71 -70 128 -132 128
-138 0 -17 -244 -255 -261 -255 -9 0 -67 49 -128 110 -124 122 -145 136 -219
146 -64 8 -58 24 10 24 27 0 64 7 82 15 17 8 79 62 136 120 58 58 109 105 115
105 5 0 67 -57 137 -127z"/>
<path d="M4232 5430 c-12 -16 -49 -51 -81 -78 l-59 -49 89 -89 89 -88 61 59
c33 33 70 73 81 88 l21 29 -79 79 c-43 43 -83 79 -89 79 -6 0 -21 -13 -33 -30z
m68 -154 c-25 -41 -31 -41 -65 -6 l-29 30 29 30 29 30 28 -27 28 -27 -20 -30z"/>
<path d="M5724 5695 c-81 -21 -134 -45 -185 -87 -8 -7 -37 -45 -63 -85 -26
-40 -63 -82 -82 -93 -29 -18 -32 -24 -23 -41 16 -32 70 -59 115 -59 98 0 200
69 242 164 24 52 40 62 132 71 l63 6 -59 -68 c-95 -112 -156 -171 -186 -184
-26 -11 -39 -29 -20 -29 29 0 261 -238 246 -253 -5 -5 -116 17 -146 28 -9 4
-22 22 -28 40 -16 48 -83 120 -136 145 -36 18 -58 21 -105 18 -93 -7 -148 -59
-94 -88 15 -8 50 -51 80 -95 66 -100 115 -146 191 -176 54 -21 74 -23 234 -23
156 0 185 3 271 26 188 51 333 139 509 307 l85 82 -89 85 c-107 102 -212 177
-321 232 -134 67 -249 93 -420 97 -99 3 -136 -1 -211 -20z m493 -237 c116
-115 153 -137 233 -138 45 -1 51 -3 36 -11 -10 -6 -46 -18 -80 -25 -59 -14
-64 -17 -173 -131 l-112 -117 -28 15 c-34 17 -253 228 -253 243 0 13 251 266
264 266 5 0 56 -46 113 -102z"/>
<path d="M6016 5381 c-77 -78 -78 -79 -62 -103 9 -14 47 -53 83 -87 l67 -62
85 85 84 86 -83 78 c-46 42 -86 78 -89 80 -4 1 -42 -33 -85 -77z m119 -106
c-23 -42 -37 -44 -64 -9 -28 35 -26 48 6 74 l27 21 25 -25 25 -25 -19 -36z"/>
<path d="M5105 5418 c-30 -23 -55 -74 -55 -110 0 -12 9 -41 20 -64 34 -69 113
-94 177 -54 82 50 86 167 7 229 -37 29 -111 29 -149 -1z"/>
<path d="M5035 5145 c-5 -2 -22 -6 -37 -9 -33 -8 -58 -51 -58 -101 0 -47 14
-71 53 -95 l31 -19 -28 -11 c-75 -28 -138 -104 -184 -217 -25 -65 -27 -77 -26
-238 0 -132 4 -185 18 -238 50 -189 144 -341 305 -494 36 -35 70 -63 75 -63
15 0 188 180 224 231 40 59 93 165 125 249 36 96 50 189 50 325 0 136 -16 207
-64 292 -33 58 -119 140 -155 149 -23 6 -34 24 -15 24 5 0 23 12 40 26 27 22
31 32 31 75 0 140 -177 147 -210 8 -24 -97 3 -256 56 -339 30 -48 100 -112
157 -145 54 -31 49 -45 -17 -45 -77 0 -164 62 -204 146 -8 19 -18 34 -21 34
-3 0 -17 -20 -30 -45 -36 -69 -100 -122 -155 -130 -47 -7 -96 -1 -96 13 0 4
15 16 33 26 94 54 136 96 171 169 64 135 74 312 22 379 -14 19 -75 47 -91 43z
m230 -725 l81 -81 24 26 c26 27 49 32 68 13 26 -26 11 -54 -74 -138 -111 -110
-141 -155 -161 -237 -20 -85 -33 -101 -33 -42 0 92 -24 133 -151 264 l-119
122 30 28 30 29 34 -33 33 -32 74 80 c41 44 76 80 79 80 2 1 41 -35 85 -79z"/>
<path d="M5125 4340 l-58 -59 54 -65 c30 -36 57 -64 60 -63 3 1 32 30 64 65
l58 63 -60 59 -59 59 -59 -59z"/>
<path d="M4768 4817 c-31 -28 -87 -90 -124 -137 -37 -47 -83 -101 -101 -121
-34 -36 -128 -88 -139 -77 -6 7 22 65 42 88 8 8 38 45 68 81 52 63 161 162
188 172 7 2 11 7 8 10 -3 3 -36 -1 -75 -9 -38 -7 -102 -13 -141 -14 -60 0 -74
-3 -91 -22 -41 -45 -78 -141 -103 -263 -11 -59 -18 -88 -41 -193 -6 -29 -9
-55 -7 -58 3 -2 22 10 43 26 47 37 81 54 159 76 153 43 256 114 256 177 1 79
36 179 91 259 21 32 36 58 32 58 -5 0 -33 -24 -65 -53z"/>
<path d="M5566 4834 c16 -20 28 -39 26 -41 -1 -2 4 -16 12 -31 7 -15 23 -67
35 -117 12 -49 28 -104 36 -122 20 -45 102 -96 215 -134 110 -36 122 -42 172
-82 21 -17 41 -27 45 -23 4 3 -3 50 -15 104 -11 53 -24 115 -27 137 -13 77
-45 171 -77 225 l-33 55 -101 6 c-55 3 -117 12 -137 18 -21 7 -41 11 -47 9 -5
-2 28 -35 73 -73 122 -105 238 -257 215 -281 -10 -9 -61 17 -100 50 -22 19
-71 74 -109 123 -78 97 -164 189 -193 205 -14 7 -11 0 10 -28z"/>
<path d="M6195 4848 c-22 -4 -64 -13 -93 -20 l-53 -13 32 -38 c39 -47 96 -77
149 -77 109 0 179 86 107 133 -29 18 -92 25 -142 15z"/>
<path d="M6495 4802 c-22 -50 -37 -68 -70 -87 -23 -14 -49 -25 -58 -25 -10 0
-17 -4 -17 -10 0 -5 7 -10 17 -10 39 0 99 -48 123 -99 26 -56 40 -65 40 -26 0
52 27 94 74 117 44 21 59 38 35 38 -6 0 -26 7 -44 16 -34 16 -62 64 -68 119
-3 28 -5 25 -32 -33z"/>
<path d="M3831 4827 c-2 -67 -36 -106 -116 -132 -17 -6 -12 -10 25 -25 56 -22
81 -54 87 -114 3 -25 9 -46 13 -46 4 0 15 17 23 38 21 51 60 97 97 112 16 7
30 15 30 19 0 3 -19 14 -41 24 -29 14 -48 33 -69 70 -47 84 -49 86 -49 54z"/>
<path d="M4016 4829 c-26 -20 -35 -61 -18 -85 49 -70 173 -57 277 31 42 34 44
45 8 45 -16 0 -53 7 -83 15 -81 22 -152 20 -184 -6z"/>
<path d="M4196 4635 c-95 -26 -173 -74 -248 -153 -79 -83 -115 -153 -143 -272
-21 -91 -31 -313 -16 -352 l11 -28 128 0 c158 0 227 12 317 55 141 67 195 138
231 299 12 56 26 109 30 120 6 16 4 17 -17 11 -13 -3 -52 -20 -85 -36 -59 -28
-90 -55 -185 -162 -45 -51 -88 -78 -153 -96 -83 -22 -113 15 -95 117 19 101
72 179 165 243 27 18 53 40 59 48 12 19 63 221 55 220 -3 0 -27 -7 -54 -14z"/>
<path d="M6114 4623 c3 -10 12 -49 21 -88 8 -38 17 -80 20 -91 3 -12 27 -36
54 -53 104 -67 177 -177 188 -285 5 -48 3 -55 -18 -70 -66 -46 -160 -3 -254
113 -29 38 -77 84 -107 103 -53 35 -145 75 -153 67 -5 -5 20 -149 33 -194 19
-64 63 -135 109 -173 105 -90 213 -122 420 -122 l133 0 6 25 c12 47 -2 327
-20 388 -53 190 -174 317 -360 380 -64 22 -79 22 -72 0z"/>
<path d="M5645 4354 c-15 -160 10 -235 91 -273 57 -27 88 -21 80 17 -3 15 -10
59 -16 97 -14 90 -51 166 -99 205 -22 16 -41 30 -44 30 -3 0 -9 -34 -12 -76z"/>
<path d="M4663 4391 c-48 -35 -89 -113 -97 -186 -10 -85 -13 -102 -19 -112
-14 -22 20 -36 58 -23 46 15 81 48 100 93 16 40 22 257 7 257 -5 0 -27 -13
-49 -29z"/>
<path d="M4131 4284 c-77 -70 -121 -184 -72 -184 48 0 94 30 119 79 17 34 29
151 14 151 -6 0 -33 -21 -61 -46z"/>
<path d="M6170 4280 c0 -28 6 -65 14 -83 17 -42 80 -97 111 -97 22 0 25 5 25
33 0 50 -55 130 -122 179 l-28 19 0 -51z"/>
<path d="M4526 4005 c-10 -40 -36 -75 -78 -106 l-38 -27 42 -7 c70 -10 94 -24
118 -67 l23 -40 26 53 c20 43 35 58 68 74 53 25 59 55 11 55 -59 0 -106 19
-136 56 l-29 35 -7 -26z"/>
<path d="M5795 3983 c-27 -32 -36 -36 -95 -42 -71 -7 -87 -25 -39 -48 44 -21
77 -59 89 -103 l11 -42 30 46 c33 53 72 73 149 75 25 1 25 1 -5 20 -39 23 -83
75 -91 107 -8 32 -13 30 -49 -13z"/>
<path d="M3820 3392 c-8 -3 -18 -10 -22 -16 -14 -20 -9 -531 4 -544 17 -17 44
-15 62 3 14 14 20 14 57 2 100 -34 192 34 205 150 14 124 -112 222 -216 168
l-29 -15 -3 116 c-3 104 -5 118 -23 129 -11 7 -27 10 -35 7z m189 -328 c41
-34 44 -92 6 -129 -33 -34 -70 -32 -107 5 -26 27 -30 36 -25 68 7 40 46 82 77
82 10 0 32 -12 49 -26z"/>
<path d="M4846 3384 c-14 -13 -16 -52 -16 -274 0 -222 2 -261 16 -274 18 -19
28 -20 55 -6 15 8 19 22 19 60 0 28 4 50 10 50 5 0 28 -25 51 -55 39 -52 44
-55 85 -55 38 0 44 3 44 21 0 12 -25 48 -56 82 l-56 60 53 53 c29 30 57 54 61
54 4 0 8 -94 8 -210 0 -199 1 -211 21 -231 18 -18 23 -19 42 -6 20 13 22 23
22 110 l0 95 25 -13 c78 -40 160 -3 196 90 31 82 -4 181 -76 217 -40 20 -92
23 -122 7 -15 -8 -22 -8 -28 1 -5 8 -31 12 -70 11 l-63 -1 -71 -67 -71 -68 -3
164 c-2 136 -5 168 -19 183 -20 22 -37 23 -57 2z m485 -323 c34 -34 37 -64 9
-108 -35 -58 -99 -53 -125 11 -15 35 -11 67 13 104 21 32 66 29 103 -7z"/>
<path d="M6022 3388 c-8 -8 -12 -52 -12 -130 l0 -119 -30 16 c-86 44 -172 -13
-195 -130 l-8 -40 -9 45 c-12 54 -47 104 -90 126 -40 21 -125 15 -161 -12 -61
-44 -85 -157 -50 -231 24 -51 85 -88 144 -87 49 1 104 26 123 56 8 14 6 22
-11 39 -20 20 -22 21 -44 5 -44 -30 -102 -19 -138 27 -13 16 -6 17 113 17
l126 0 10 -27 c28 -75 52 -99 117 -113 26 -6 47 -4 71 6 32 13 37 13 54 -2 15
-14 23 -15 43 -6 l25 12 0 263 c0 243 -1 265 -18 280 -22 20 -43 22 -60 5z
m-379 -299 c22 -12 37 -28 37 -41 0 -5 -31 -8 -70 -8 -38 0 -70 4 -70 9 0 13
50 51 67 51 8 0 24 -5 36 -11z m328 -10 c31 -16 48 -65 38 -108 -14 -61 -63
-79 -112 -41 -34 27 -43 70 -23 109 25 47 58 61 97 40z"/>
<path d="M4697 3322 c-25 -28 -22 -69 8 -88 56 -37 117 22 77 75 -24 32 -62
38 -85 13z"/>
<path d="M6155 3316 c-26 -26 -25 -45 3 -78 21 -25 49 -22 77 7 30 29 31 36 8
63 -30 34 -59 37 -88 8z"/>
<path d="M4518 3279 c-13 -7 -18 -23 -18 -59 0 -49 -1 -50 -30 -50 -24 0 -31
-5 -36 -27 -5 -19 -2 -30 12 -40 10 -7 24 -11 30 -9 8 3 13 -27 17 -96 6 -117
20 -145 84 -167 37 -13 43 -13 68 3 19 13 25 24 23 44 -2 22 -9 28 -38 32
l-35 5 0 90 0 90 35 0 c33 0 35 2 35 35 0 34 -1 35 -41 38 l-41 3 5 44 c7 65
-23 92 -70 64z"/>
<path d="M4728 3179 c-16 -9 -18 -28 -18 -164 0 -84 3 -160 6 -169 7 -19 57
-21 71 -3 6 7 9 78 7 167 -2 134 -5 156 -20 167 -21 15 -24 15 -46 2z"/>
<path d="M4226 3165 c-21 -7 -46 -21 -55 -29 -14 -15 -13 -18 11 -42 21 -22
29 -24 46 -15 31 17 77 13 95 -7 10 -10 17 -21 17 -24 0 -3 -27 -8 -60 -11
-76 -8 -114 -28 -130 -66 -37 -90 64 -176 158 -133 30 13 34 13 52 -3 17 -15
24 -16 46 -6 l26 12 -4 117 c-4 133 -18 170 -70 195 -52 24 -90 27 -132 12z
m114 -219 c0 -22 -6 -26 -44 -31 -48 -8 -66 -2 -66 20 0 20 29 34 73 35 33 0
37 -3 37 -24z"/>
<path d="M6153 3173 c-10 -3 -13 -47 -13 -169 0 -161 0 -165 23 -173 14 -6 29
-5 42 4 18 11 20 25 23 165 2 104 -1 157 -9 166 -11 14 -42 17 -66 7z"/>
<path d="M6353 3169 c-35 -7 -83 -35 -83 -47 0 -5 11 -19 24 -31 22 -21 27
-22 59 -10 40 14 82 6 91 -17 4 -9 5 -18 3 -20 -2 -2 -34 -8 -71 -13 -98 -14
-143 -65 -117 -133 24 -62 83 -87 152 -63 38 14 44 14 60 -1 24 -21 57 -10 65
23 4 14 4 69 1 123 -5 101 -22 151 -56 169 -32 18 -95 28 -128 20z m97 -223
c0 -28 -16 -36 -71 -36 -33 0 -39 3 -39 20 0 24 29 38 78 39 27 1 32 -2 32
-23z"/>
</g>
</svg>
