<?xml version="1.0" standalone="no"?>
<!DOCTYPE svg PUBLIC "-//W3C//DTD SVG 20010904//EN"
 "http://www.w3.org/TR/2001/REC-SVG-20010904/DTD/svg10.dtd">
<svg version="1.0" xmlns="http://www.w3.org/2000/svg"
 width="1024.000000pt" height="1024.000000pt" viewBox="0 0 1024.000000 1024.000000"
 preserveAspectRatio="xMidYMid meet">

<g transform="translate(0.000000,1024.000000) scale(0.100000,-0.100000)"
fill="#000000" stroke="none">
<path d="M0 5120 l0 -5120 5120 0 5120 0 0 5120 0 5120 -5120 0 -5120 0 0
-5120z m4229 2914 c23 -25 32 -50 45 -130 29 -162 77 -236 194 -296 l66 -33
665 0 666 0 56 26 c117 55 180 140 200 271 14 93 34 151 60 174 19 17 40 19
243 19 204 0 225 -2 267 -21 90 -42 154 -116 190 -222 19 -54 19 -124 17
-2701 l-3 -2646 -33 -67 c-63 -129 -165 -209 -300 -237 -37 -8 -450 -11 -1375
-11 -1440 0 -1402 -1 -1508 57 -28 15 -75 53 -104 85 -58 63 -88 128 -105 230
-15 92 -14 5179 1 5250 22 107 76 187 157 235 81 48 111 52 350 50 l224 -2 27
-31z"/>
<path d="M3869 7932 c-15 -13 -22 -30 -22 -51 0 -28 -3 -32 -22 -27 -27 7 -75
-27 -75 -53 0 -10 9 -30 20 -44 17 -21 27 -25 51 -20 28 5 30 4 23 -21 -9 -36
18 -76 52 -76 46 0 64 17 64 60 0 39 1 40 35 40 39 0 75 28 75 58 0 32 -38 63
-73 60 -29 -3 -32 -1 -29 23 2 19 -4 33 -24 48 -33 26 -45 26 -75 3z"/>
<path d="M6306 7869 c-36 -29 -36 -80 1 -109 70 -55 151 42 88 105 -30 30 -54
31 -89 4z"/>
<path d="M6531 7873 c-11 -10 -24 -32 -27 -50 -5 -26 -1 -37 19 -57 15 -14 36
-26 47 -26 25 0 80 51 80 75 0 23 -54 75 -78 75 -11 0 -29 -8 -41 -17z"/>
<path d="M5117 6873 c-189 -171 -303 -384 -334 -628 -17 -130 -9 -255 22 -343
31 -88 131 -194 205 -217 24 -7 23 -8 -10 -19 -48 -15 -76 -71 -61 -119 13
-38 45 -71 79 -82 34 -10 89 13 113 47 31 43 37 155 14 256 -30 132 -74 188
-198 252 -37 19 -65 40 -64 45 7 21 97 17 144 -6 51 -25 116 -86 140 -132 l15
-30 25 44 c37 63 62 88 116 116 51 25 137 30 144 7 2 -6 -21 -24 -52 -39 -114
-58 -170 -131 -201 -261 -22 -93 -14 -202 17 -245 22 -31 72 -59 107 -59 10 0
35 15 55 34 31 28 37 40 37 74 0 43 -27 87 -60 97 -31 10 -24 23 28 49 59 31
113 87 146 151 38 76 50 169 42 323 -5 111 -11 149 -36 223 -39 118 -86 208
-157 304 -58 78 -189 205 -212 205 -6 0 -35 -21 -64 -47z m94 -337 c8 -30 39
-69 127 -158 l115 -118 -23 -25 c-28 -30 -40 -31 -63 -5 -9 11 -20 20 -24 20
-5 0 -41 -36 -82 -81 l-74 -80 -86 85 -86 85 -18 -25 c-23 -31 -38 -30 -67 1
l-24 26 96 97 c112 113 152 173 170 251 l12 56 8 -45 c5 -25 13 -63 19 -84z"/>
<path d="M5156 6415 c-10 -15 -33 -43 -51 -64 l-33 -37 56 -59 57 -60 57 61
58 60 -64 63 -63 62 -17 -26z"/>
<path d="M4569 6806 c-23 -47 -71 -76 -125 -76 -25 0 -23 -3 30 -61 31 -33 56
-64 56 -70 0 -16 18 -10 46 16 28 26 81 45 127 45 41 0 34 26 -17 57 -41 25
-76 74 -76 108 0 32 -20 22 -41 -19z"/>
<path d="M5741 6795 c-17 -42 -34 -63 -68 -86 -53 -37 -47 -50 24 -56 50 -4
89 -23 111 -55 18 -24 29 -23 36 6 3 13 29 46 57 72 l50 49 -44 7 c-59 8 -90
30 -113 78 -10 22 -22 40 -25 40 -3 0 -16 -25 -28 -55z"/>
<path d="M3798 6759 c-5 -3 -12 -64 -15 -135 -7 -160 11 -267 63 -372 42 -87
132 -187 201 -224 47 -26 191 -74 198 -67 2 2 0 22 -5 44 -5 22 -14 69 -21
103 -12 57 -18 68 -58 100 -25 21 -71 62 -102 94 -49 47 -61 67 -79 126 -12
38 -20 87 -18 108 l3 39 51 -1 c84 -2 138 -34 244 -143 80 -83 105 -102 163
-126 37 -15 69 -26 71 -24 8 9 -33 219 -50 250 -47 93 -129 156 -253 197 -62
20 -104 26 -230 31 -84 3 -157 3 -163 0z"/>
<path d="M6400 6759 c-206 -11 -308 -46 -402 -136 -62 -61 -93 -121 -117 -228
-10 -50 -23 -99 -27 -109 -6 -17 -4 -18 22 -12 68 16 154 68 196 118 109 130
125 144 197 168 55 19 76 22 98 14 27 -9 28 -12 27 -76 -1 -114 -65 -214 -187
-292 l-52 -34 -13 -83 c-7 -45 -18 -91 -23 -102 -16 -28 -7 -30 57 -11 111 32
164 61 230 129 118 120 162 241 170 465 5 144 -2 191 -31 195 -5 1 -71 -2
-145 -6z"/>
<path d="M4544 6518 c4 -13 13 -61 21 -108 20 -123 29 -143 90 -189 62 -47 60
-49 70 65 8 87 -5 142 -47 190 -32 36 -85 64 -120 64 -16 0 -19 -4 -14 -22z"/>
<path d="M5730 6517 c-71 -37 -90 -85 -90 -224 0 -62 4 -113 9 -113 13 0 84
50 104 73 10 11 20 32 24 46 3 14 14 60 25 101 10 41 21 90 24 108 5 30 3 32
-24 32 -16 0 -48 -10 -72 -23z"/>
<path d="M4030 6487 c0 -34 64 -137 104 -171 25 -20 47 -36 50 -36 3 0 6 29 6
64 0 55 -4 69 -27 97 -41 48 -133 80 -133 46z"/>
<path d="M6245 6477 c-25 -14 -47 -37 -59 -62 -22 -43 -34 -145 -19 -145 14 0
62 37 95 74 25 26 68 120 68 146 0 17 -44 10 -85 -13z"/>
<path d="M4250 6322 c0 -38 76 -371 96 -422 42 -108 42 -108 174 -120 64 -5
138 -16 165 -24 27 -9 50 -14 52 -12 2 1 -31 26 -71 54 -41 29 -105 86 -143
127 -69 76 -128 169 -117 186 15 25 142 -82 222 -186 47 -61 153 -167 185
-186 18 -10 18 -9 1 18 -10 15 -28 42 -40 58 -27 39 -52 123 -60 205 -6 59
-10 68 -47 102 -36 34 -161 92 -222 104 -40 8 -81 28 -132 66 -54 39 -63 44
-63 30z"/>
<path d="M6084 6309 c-34 -39 -94 -70 -182 -95 -96 -27 -174 -64 -212 -100
-19 -19 -27 -41 -36 -102 -14 -90 -43 -173 -84 -233 -16 -24 -27 -45 -25 -47
10 -10 128 107 200 199 45 58 101 117 129 136 54 37 89 44 79 16 -19 -56 -236
-297 -282 -314 -46 -18 -13 -20 63 -5 41 9 109 16 150 16 l75 0 35 73 c20 39
44 110 55 157 26 113 62 312 58 316 -2 2 -12 -5 -23 -17z"/>
<path d="M3830 6051 c0 -11 -7 -39 -17 -62 -13 -34 -25 -45 -67 -64 l-50 -22
46 -21 c54 -24 78 -55 85 -113 6 -39 7 -41 20 -23 8 10 24 38 35 61 14 30 35
52 71 74 l51 31 -35 15 c-44 18 -76 49 -100 95 -23 44 -39 56 -39 29z"/>
<path d="M6506 6052 c-4 -10 -20 -39 -36 -65 -24 -39 -37 -49 -75 -59 -25 -7
-45 -15 -45 -19 0 -4 16 -13 36 -19 52 -17 71 -37 107 -105 l31 -60 8 44 c10
61 30 87 85 111 l48 22 -53 23 c-55 25 -82 64 -82 120 0 29 -16 34 -24 7z"/>
<path d="M4043 5881 c-63 -29 -70 -81 -16 -113 44 -25 93 -29 168 -13 38 8 82
15 97 15 38 0 35 19 -9 62 -70 68 -158 86 -240 49z"/>
<path d="M6155 5886 c-28 -12 -115 -93 -115 -106 0 -9 161 -35 212 -33 56 2
79 13 98 47 39 74 -94 137 -195 92z"/>
<path d="M4295 5705 c-267 -50 -425 -132 -624 -325 -60 -58 -70 -73 -62 -88
20 -38 200 -200 282 -253 179 -118 324 -159 560 -159 141 0 215 13 296 51 68
32 101 67 140 143 30 60 68 104 102 117 l25 10 -30 30 c-24 24 -42 31 -86 36
-113 12 -218 -52 -254 -154 l-18 -52 -74 -16 c-40 -9 -76 -15 -78 -12 -5 5
101 141 146 186 19 18 51 45 73 59 40 26 40 26 16 37 -50 21 -83 52 -161 147
-44 55 -78 101 -77 102 6 5 129 -13 141 -20 5 -3 19 -27 30 -53 47 -110 163
-177 271 -157 37 7 87 49 87 73 0 7 -10 17 -22 22 -29 12 -71 56 -93 101 -44
87 -102 131 -214 164 -79 23 -278 29 -376 11z m107 -272 c71 -70 128 -132 128
-138 0 -17 -244 -255 -261 -255 -9 0 -67 49 -128 110 -124 122 -145 136 -219
146 -64 8 -58 24 10 24 27 0 64 7 82 15 17 8 79 62 136 120 58 58 109 105 115
105 5 0 67 -57 137 -127z"/>
<path d="M4232 5430 c-12 -16 -49 -51 -81 -78 l-59 -49 89 -89 89 -88 61 59
c33 33 70 73 81 88 l21 29 -79 79 c-43 43 -83 79 -89 79 -6 0 -21 -13 -33 -30z
m68 -154 c-25 -41 -31 -41 -65 -6 l-29 30 29 30 29 30 28 -27 28 -27 -20 -30z"/>
<path d="M5785 5713 c-144 -28 -248 -86 -293 -165 -35 -60 -62 -92 -107 -125
l-30 -21 38 -36 c33 -31 45 -36 86 -36 106 0 199 59 249 160 29 59 39 63 144
72 l46 5 -97 -111 c-62 -70 -112 -118 -139 -131 l-43 -22 39 -26 c38 -25 213
-207 221 -229 2 -8 -12 -9 -47 -4 -82 11 -107 23 -120 60 -36 99 -129 166
-231 166 -38 0 -66 -6 -89 -20 -49 -30 -50 -46 -4 -86 23 -19 55 -59 72 -90
89 -154 206 -202 469 -191 266 11 436 79 647 258 45 38 100 90 123 115 49 52
51 44 -42 133 -95 91 -231 188 -330 235 -84 40 -141 57 -282 85 -47 9 -238 12
-280 4z m432 -255 c116 -115 153 -137 233 -138 45 -1 51 -3 36 -11 -10 -6 -46
-18 -80 -25 -59 -14 -64 -17 -173 -131 l-112 -117 -28 15 c-34 17 -253 228
-253 243 0 13 251 266 264 266 5 0 56 -46 113 -102z"/>
<path d="M6016 5381 c-77 -78 -78 -79 -62 -103 9 -14 47 -53 83 -87 l67 -62
85 85 84 86 -83 78 c-46 42 -86 78 -89 80 -4 1 -42 -33 -85 -77z m119 -106
c-23 -42 -37 -44 -64 -9 -28 35 -26 48 6 74 l27 21 25 -25 25 -25 -19 -36z"/>
<path d="M5146 5439 c-83 -24 -120 -119 -75 -199 40 -70 116 -90 180 -47 67
45 82 129 35 192 -40 52 -86 70 -140 54z"/>
<path d="M4984 5131 c-63 -39 -65 -138 -4 -183 36 -26 37 -34 7 -42 -74 -18
-176 -168 -198 -291 -16 -88 -5 -332 20 -422 25 -91 68 -185 126 -274 49 -75
189 -227 230 -249 25 -13 28 -11 92 51 89 88 178 200 214 271 164 325 158 674
-16 850 -26 25 -62 54 -82 63 l-36 17 33 16 c70 34 76 135 11 179 -19 13 -46
23 -60 23 -32 0 -86 -32 -101 -60 -18 -34 -24 -151 -11 -225 23 -129 100 -240
206 -296 25 -13 45 -27 45 -31 0 -4 -15 -10 -34 -14 -71 -13 -162 41 -211 124
-16 29 -33 52 -36 52 -3 0 -13 -16 -22 -35 -22 -47 -81 -110 -115 -124 -16 -7
-55 -11 -88 -9 l-59 3 45 29 c94 62 131 98 161 158 53 105 75 275 46 357 -24
67 -106 99 -163 62z m281 -711 l81 -81 24 26 c26 27 49 32 68 13 26 -26 11
-54 -74 -138 -111 -110 -141 -155 -161 -237 -20 -85 -33 -101 -33 -42 0 92
-24 133 -151 264 l-119 122 30 28 30 29 34 -33 33 -32 74 80 c41 44 76 80 79
80 2 1 41 -35 85 -79z"/>
<path d="M5125 4340 l-58 -59 54 -65 c30 -36 57 -64 60 -63 3 1 32 30 64 65
l58 63 -60 59 -59 59 -59 -59z"/>
<path d="M4789 4841 c-25 -22 -96 -100 -158 -174 -89 -108 -122 -140 -166
-163 -29 -16 -57 -25 -61 -22 -7 7 20 59 49 94 94 115 123 146 164 180 26 21
50 41 53 45 3 3 16 12 28 18 38 20 21 22 -62 6 -43 -8 -109 -15 -147 -15 -77
0 -93 -10 -128 -77 -26 -53 -45 -122 -81 -295 -38 -186 -38 -189 -2 -156 45
42 103 73 175 91 86 22 165 60 212 100 33 29 38 40 51 114 16 95 49 175 100
244 20 27 32 49 27 49 -4 0 -29 -18 -54 -39z"/>
<path d="M5546 4858 c4 -7 17 -29 29 -48 31 -49 60 -133 75 -214 20 -110 75
-156 259 -215 62 -20 112 -44 147 -71 53 -40 54 -40 54 -16 0 14 -9 63 -19
108 -10 46 -24 116 -31 155 -12 72 -73 217 -101 239 -8 7 -59 15 -114 19 -55
3 -122 13 -150 21 l-50 14 60 -52 c127 -110 237 -238 251 -292 6 -25 5 -28
-10 -23 -10 4 -22 7 -27 7 -17 0 -110 93 -171 170 -65 83 -186 210 -200 210
-5 0 -6 -6 -2 -12z"/>
<path d="M3827 4818 c-8 -62 -36 -95 -102 -119 l-30 -11 44 -17 c57 -23 79
-51 87 -112 4 -27 10 -49 13 -49 4 0 19 25 34 55 21 43 39 63 78 88 l51 31
-28 8 c-42 11 -83 54 -110 115 -13 29 -25 53 -28 53 -2 0 -6 -19 -9 -42z"/>
<path d="M4051 4847 c-19 -7 -43 -24 -54 -38 -17 -24 -18 -29 -4 -56 41 -79
173 -71 280 17 20 18 37 35 37 39 0 7 -40 16 -205 47 -11 2 -35 -2 -54 -9z"/>
<path d="M6130 4836 c-41 -10 -77 -21 -79 -23 -7 -5 40 -53 83 -84 69 -51 191
-34 226 31 41 77 -78 116 -230 76z"/>
<path d="M6497 4809 c-28 -62 -74 -107 -118 -116 -38 -7 -36 -16 6 -32 50 -18
88 -53 110 -100 10 -23 21 -41 25 -41 4 0 10 19 14 41 10 60 22 78 71 99 58
25 61 35 16 48 -50 16 -71 41 -86 104 l-13 53 -25 -56z"/>
<path d="M4168 4626 c-163 -57 -279 -169 -340 -329 -40 -105 -65 -410 -37
-455 10 -15 26 -16 172 -11 210 8 291 34 395 125 74 64 106 133 128 271 3 20
10 47 15 61 5 14 8 27 6 29 -8 7 -115 -38 -160 -68 -26 -17 -69 -59 -97 -95
-58 -74 -108 -110 -177 -128 -88 -23 -116 5 -101 103 18 110 64 178 173 257
60 43 63 46 75 106 6 35 18 83 26 107 8 25 14 46 14 48 0 7 -29 0 -92 -21z"/>
<path d="M6115 4622 c4 -15 13 -60 21 -100 8 -41 17 -80 22 -87 4 -7 36 -34
72 -61 77 -58 135 -138 155 -214 23 -84 20 -107 -15 -125 -69 -35 -153 2 -235
105 -77 97 -157 153 -249 176 -29 7 -29 6 -22 -27 4 -19 12 -60 17 -92 23
-135 76 -219 182 -288 92 -59 162 -76 352 -86 169 -8 161 -17 157 175 -3 174
-20 262 -69 362 -62 126 -184 225 -334 270 l-61 19 7 -27z"/>
<path d="M4669 4396 c-79 -60 -92 -93 -121 -311 -7 -48 100 -14 142 45 27 37
38 125 31 228 l-6 74 -46 -36z"/>
<path d="M5646 4378 c-20 -171 4 -255 84 -296 60 -30 85 -26 84 13 -1 48 -13
126 -30 184 -15 53 -92 151 -119 151 -7 0 -15 -21 -19 -52z"/>
<path d="M4127 4283 c-52 -50 -80 -98 -91 -152 l-6 -34 40 6 c56 7 88 31 111
80 22 49 26 147 7 147 -7 0 -35 -21 -61 -47z"/>
<path d="M6166 4278 c10 -86 36 -132 89 -163 42 -25 48 -26 62 -12 26 26 -8
100 -77 170 -72 72 -83 73 -74 5z"/>
<path d="M4513 3982 c-15 -31 -37 -59 -63 -77 -22 -15 -37 -31 -34 -36 3 -5
25 -9 48 -9 52 0 92 -28 113 -79 l16 -36 20 53 c17 46 28 58 69 80 59 33 65
62 13 62 -50 0 -105 25 -135 61 l-25 30 -22 -49z"/>
<path d="M5806 3999 c-38 -46 -52 -53 -115 -59 -30 -3 -56 -10 -58 -17 -3 -7
15 -24 39 -39 51 -33 63 -47 78 -98 l12 -39 28 44 c32 52 63 69 125 69 52 0
56 9 18 32 -42 24 -71 60 -86 102 l-13 38 -28 -33z"/>
<path d="M3808 3389 c-16 -9 -18 -33 -18 -277 0 -195 3 -271 12 -280 16 -16
48 -15 68 3 15 13 21 13 56 -1 109 -43 218 64 200 196 -7 48 -46 106 -87 127
-33 17 -94 16 -129 -2 l-30 -16 0 115 c0 91 -3 118 -16 130 -18 18 -32 20 -56
5z m201 -325 c41 -34 44 -92 6 -129 -33 -34 -70 -32 -107 5 -26 27 -30 36 -25
68 7 40 46 82 77 82 10 0 32 -12 49 -26z"/>
<path d="M4846 3384 c-14 -13 -16 -52 -16 -274 0 -222 2 -261 16 -274 38 -39
74 -11 74 56 0 26 4 48 9 48 5 0 27 -25 50 -55 40 -52 44 -55 86 -55 39 0 45
3 45 21 0 12 -25 48 -56 82 l-56 60 53 53 c29 30 57 54 61 54 4 0 8 -97 8
-215 l0 -215 25 -16 c24 -16 27 -16 45 1 17 15 20 31 20 107 0 78 8 105 24 79
3 -4 20 -11 37 -15 49 -10 113 26 145 81 23 39 26 52 21 104 -6 67 -37 118
-87 144 -34 18 -93 20 -122 4 -15 -8 -22 -8 -28 1 -4 6 -32 14 -62 17 l-56 6
-71 -67 c-38 -36 -75 -66 -81 -66 -6 0 -10 56 -10 159 0 132 -3 162 -16 175
-8 9 -22 16 -29 16 -7 0 -21 -7 -29 -16z m485 -323 c34 -34 37 -64 9 -108 -35
-58 -99 -53 -125 11 -15 35 -11 67 13 104 21 32 66 29 103 -7z"/>
<path d="M6022 3388 c-8 -8 -12 -51 -12 -126 0 -105 -1 -114 -17 -107 -44 18
-96 18 -129 0 -36 -19 -83 -99 -85 -144 -1 -17 -4 -10 -10 18 -31 161 -230
199 -298 57 -32 -65 -29 -142 8 -193 55 -76 155 -93 227 -38 39 30 42 45 15
69 -18 16 -22 16 -50 2 -43 -23 -84 -20 -109 7 -12 13 -22 26 -22 30 0 4 53 7
118 7 l118 0 24 -51 c14 -29 36 -60 50 -71 35 -26 94 -31 131 -12 28 14 32 14
48 0 10 -9 24 -16 32 -16 36 0 39 19 39 286 0 225 -2 265 -16 278 -18 19 -45
21 -62 4z m-379 -299 c22 -12 37 -28 37 -41 0 -5 -31 -8 -70 -8 -38 0 -70 4
-70 9 0 13 50 51 67 51 8 0 24 -5 36 -11z m328 -10 c31 -16 48 -65 38 -108
-14 -61 -63 -79 -112 -41 -34 27 -43 70 -23 109 25 47 58 61 97 40z"/>
<path d="M4698 3326 c-23 -17 -23 -68 0 -89 28 -25 69 -21 88 8 37 57 -34 123
-88 81z"/>
<path d="M6163 3328 c-30 -15 -36 -48 -14 -78 24 -34 57 -37 87 -9 31 29 30
53 -2 78 -30 23 -39 24 -71 9z"/>
<path d="M4507 3272 c-10 -11 -17 -35 -17 -60 0 -37 -2 -41 -27 -44 -47 -5
-40 -78 7 -78 16 0 19 -12 22 -101 3 -99 3 -101 35 -130 56 -49 123 -51 145
-4 14 32 -4 55 -42 55 -35 0 -40 13 -40 106 l0 74 34 0 c33 0 62 20 49 34 -4
4 -8 15 -8 24 0 12 -10 18 -37 20 l-38 3 0 48 c0 26 -5 52 -12 59 -18 18 -53
15 -71 -6z"/>
<path d="M4728 3179 c-16 -9 -18 -28 -18 -174 0 -152 1 -165 19 -175 27 -14
37 -13 55 6 13 13 16 43 16 168 0 135 -2 155 -18 169 -21 19 -30 20 -54 6z"/>
<path d="M4212 3161 c-54 -25 -60 -42 -28 -76 23 -25 27 -26 41 -11 22 22 78
20 98 -2 10 -10 17 -21 17 -24 0 -3 -26 -8 -58 -11 -111 -10 -157 -58 -133
-138 21 -68 96 -98 162 -64 27 14 31 14 45 0 18 -18 45 -20 62 -3 21 21 15
215 -7 265 -33 71 -122 99 -199 64z m128 -215 c0 -22 -6 -26 -44 -31 -48 -8
-66 -2 -66 20 0 20 29 34 73 35 33 0 37 -3 37 -24z"/>
<path d="M6153 3173 c-10 -3 -13 -47 -13 -168 0 -152 1 -165 19 -175 27 -14
37 -13 55 6 24 23 24 329 0 338 -18 7 -43 7 -61 -1z"/>
<path d="M6355 3173 c-41 -10 -85 -36 -85 -48 0 -7 14 -25 31 -39 27 -23 32
-24 45 -11 20 20 68 19 88 -1 26 -26 19 -31 -51 -39 -58 -6 -72 -12 -101 -41
-30 -30 -34 -39 -29 -70 9 -53 32 -82 77 -95 33 -10 47 -9 82 4 38 15 43 15
59 1 23 -21 57 -10 65 23 4 13 4 69 2 123 -5 109 -24 155 -71 178 -32 16 -84
23 -112 15z m95 -227 c0 -28 -16 -36 -71 -36 -33 0 -39 3 -39 20 0 24 29 38
78 39 27 1 32 -2 32 -23z"/>
</g>
</svg>
